<svg version="1.1" id="Layer_1" xmlns="http://www.w3.org/2000/svg" xmlns:xlink="http://www.w3.org/1999/xlink" x="0px" y="0px"
	 width="30px" height="30px" viewBox="0 0 100 100" style="enable-background:new 0 0 100 100;" xml:space="preserve">
<g>
	<g>
		<path d="M82.6,19.9H17.4c-3.8,0-6.9,3.1-6.9,6.9v46.3c0,3.8,3.1,6.9,6.9,6.9h65.1c3.8,0,6.9-3.1,6.9-6.9V26.9
			C89.5,23,86.4,19.9,82.6,19.9z M81.6,24.5L50.1,56L18.4,24.5H81.6z M15.1,72.2V27.8l22.3,22.1L15.1,72.2z M18.4,75.5l22.3-22.3
			l7.8,7.7c0.9,0.9,2.4,0.9,3.3,0l7.6-7.6l22.2,22.2H18.4z M84.9,72.2L62.7,50l22.2-22.2V72.2z"/>
	</g>
</g>
</svg>
