<svg version="1.1" id="Layer_1" xmlns="http://www.w3.org/2000/svg" xmlns:xlink="http://www.w3.org/1999/xlink" x="0px" y="0px"
	 width="30px" height="30px" viewBox="0 0 100 100" style="enable-background:new 0 0 100 100;" xml:space="preserve">
	<g>
		<path d="M80.5,10.2H19.5c-5.1,0-9.3,4.2-9.3,9.3v60.9c0,5.1,4.2,9.3,9.3,9.3h60.9c5.1,0,9.3-4.2,9.3-9.3V19.5
			C89.8,14.4,85.6,10.2,80.5,10.2z M83.6,80.5c0,1.7-1.4,3.1-3.1,3.1H62.7V58.2h9.6l1.6-9.6H62.7v-6.7c0-2.6,2-4.7,4.7-4.7h6.4v-9.6
			h-6.4c-7.9,0-14.3,6.4-14.3,14.3v6.7h-9.3v9.6h9.3v25.3H19.5c-1.7,0-3.1-1.4-3.1-3.1V19.5c0-1.7,1.4-3.1,3.1-3.1h60.9
			c1.7,0,3.1,1.4,3.1,3.1V80.5z"/>
	</g>
</svg>
