<svg version="1.1" id="Layer_1" xmlns="http://www.w3.org/2000/svg" xmlns:xlink="http://www.w3.org/1999/xlink" x="0px" y="0px"
	 width="30px" height="30px" viewBox="0 0 100 100" style="enable-background:new 0 0 100 100;" xml:space="preserve">
<g id="layer1" transform="translate(-77.12909,-99.75057)">
	<path id="path4642" d="M127.1,109.9c-10.8,0-12.2,0.1-16.4,0.2c-4.2,0.2-7.1,0.9-9.7,1.8
		c-2.6,1-4.8,2.4-7.1,4.6c-2.2,2.2-3.6,4.4-4.6,7.1c-1,2.5-1.7,5.4-1.9,9.7c-0.2,4.2-0.2,5.6-0.2,16.4c0,10.8,0,12.2,0.2,16.4
		c0.2,4.2,0.9,7.1,1.9,9.7c1,2.6,2.4,4.8,4.6,7.1c2.2,2.2,4.4,3.6,7.1,4.6c2.5,1,5.4,1.7,9.7,1.9c4.2,0.2,5.6,0.2,16.4,0.2
		s12.2-0.1,16.4-0.2c4.2-0.2,7.1-0.9,9.7-1.9c2.6-1,4.8-2.4,7.1-4.6c2.2-2.2,3.6-4.4,4.6-7.1c1-2.5,1.7-5.4,1.9-9.7
		c0.2-4.2,0.2-5.6,0.2-16.4c0-10.8,0-12.2-0.2-16.4c-0.2-4.2-0.9-7.1-1.9-9.7c-1-2.6-2.4-4.8-4.6-7.1c-2.2-2.2-4.4-3.6-7.1-4.6
		c-2.5-1-5.4-1.6-9.7-1.8C139.3,110,137.9,109.9,127.1,109.9L127.1,109.9z M127.1,117.1c10.6,0,11.9,0.1,16.1,0.2
		c3.9,0.2,6,0.8,7.4,1.4c1.9,0.7,3.2,1.6,4.6,3c1.4,1.4,2.3,2.7,3,4.6c0.5,1.4,1.2,3.5,1.4,7.4c0.2,4.2,0.2,5.5,0.2,16.1
		c0,10.6,0,11.9-0.2,16.1c-0.2,3.9-0.8,6-1.4,7.4c-0.7,1.9-1.6,3.2-3,4.6c-1.4,1.4-2.7,2.3-4.6,3c-1.4,0.5-3.5,1.2-7.4,1.4
		c-4.2,0.2-5.5,0.2-16.1,0.2s-11.9-0.1-16.1-0.2c-3.9-0.2-6-0.8-7.4-1.4c-1.9-0.7-3.2-1.6-4.6-3c-1.4-1.4-2.3-2.7-3-4.6
		c-0.5-1.4-1.2-3.5-1.4-7.4c-0.2-4.2-0.2-5.5-0.2-16.1c0-10.6,0-11.9,0.2-16.1c0.2-3.9,0.8-6,1.4-7.4c0.7-1.9,1.6-3.2,3-4.6
		c1.4-1.4,2.7-2.3,4.6-3c1.4-0.5,3.5-1.2,7.4-1.4C115.2,117.1,116.5,117.1,127.1,117.1z M148.4,123.7c-2.6,0-4.8,2.1-4.8,4.8
		c0,2.6,2.1,4.8,4.8,4.8c2.6,0,4.8-2.1,4.8-4.8C153.2,125.9,151,123.7,148.4,123.7z M127.1,129.3c-11.3,0-20.4,9.2-20.4,20.5
		c0,11.3,9.2,20.4,20.4,20.4s20.5-9.2,20.5-20.4C147.6,138.5,138.4,129.3,127.1,129.3L127.1,129.3z M127.1,136.5
		c7.3,0,13.3,5.9,13.3,13.3c0,7.3-5.9,13.3-13.3,13.3c-7.3,0-13.3-5.9-13.3-13.3C113.9,142.4,119.8,136.5,127.1,136.5z"/>
</g>
</svg>
