<svg xmlns="http://www.w3.org/2000/svg" viewBox="0 0 459.75 357.45"><defs><style>.cls-1{isolation:isolate;}.cls-2{fill:#e5e9ed;}.cls-3{fill:#bec8d2;}.cls-4{fill:#174159;}.cls-10,.cls-11,.cls-16,.cls-5,.cls-7,.cls-8,.cls-9{fill:none;}.cls-10,.cls-11,.cls-16,.cls-5{stroke:#174159;}.cls-10,.cls-5,.cls-8,.cls-9{stroke-linecap:round;}.cls-11,.cls-16,.cls-18,.cls-27,.cls-28,.cls-29,.cls-5,.cls-7,.cls-8{stroke-miterlimit:10;}.cls-6{fill:#f2f2f2;}.cls-7,.cls-8,.cls-9{stroke:#bec8d2;}.cls-10,.cls-9{stroke-linejoin:round;}.cls-11{stroke-width:0.75px;}.cls-12,.cls-18,.cls-29{fill:#67bf00;}.cls-13{fill:#29a6d2;}.cls-14{fill:#fb7625;}.cls-15,.cls-28{fill:#bde27d;}.cls-17{opacity:0.2;mix-blend-mode:multiply;}.cls-18{stroke:#f2f2f2;}.cls-18,.cls-27,.cls-28,.cls-29{stroke-width:0.5px;}.cls-19{fill:#fff;}.cls-20{fill:#2d80ea;}.cls-21{fill:#2e546a;}.cls-22{fill:#f98a4b;}.cls-23{fill:#ffcb48;}.cls-24{fill:#b6dd6b;}.cls-25{fill:#5bc0e4;}.cls-26{fill:#e0874b;}.cls-27{stroke:#000;}.cls-28{stroke:#5620d8;}.cls-29{stroke:#2d80ea;}</style></defs><title>Prancheta 2</title><g class="cls-1"><g id="OBJECTS"><path class="cls-2" d="M420,353.21c0,2.34-85.1,4.24-190.08,4.24S39.8,355.55,39.8,353.21,124.9,349,229.87,349,420,350.87,420,353.21Z"/><rect class="cls-2" x="77.65" y="119.21" width="304.46" height="195.16"/><rect class="cls-3" x="77.65" y="127.03" width="304.46" height="17.11"/><path class="cls-4" d="M95.76,133.58l1.71,1.8v2.42H94.05v-2.42l1.71-1.8m0-1.21a.6.6,0,0,0-.41.19l-2.07,2.18a.89.89,0,0,0-.23.6V138a.73.73,0,0,0,.64.79h4.15a.72.72,0,0,0,.63-.79v-2.67a.89.89,0,0,0-.22-.6l-2.07-2.18a.6.6,0,0,0-.42-.19Z"/><path class="cls-5" d="M103.81,137.43l2.4-1.54a.33.33,0,0,0,0-.61l-2.4-1.54"/><path class="cls-5" d="M87.71,137.43l-2.39-1.54c-.28-.18-.28-.44,0-.61l2.39-1.54"/><rect class="cls-6" x="114" y="130.27" width="235.48" height="10.63" rx="2.6"/><rect class="cls-3" x="192.95" y="133.98" width="77.59" height="3.21"/><path class="cls-7" d="M122.28,134a2.27,2.27,0,1,1-3.21,0A2.26,2.26,0,0,1,122.28,134Z"/><line class="cls-8" x1="122.28" y1="137.19" x2="123.64" y2="138.55"/><path class="cls-8" d="M346,135.58a2.27,2.27,0,1,1-2.27-2.27"/><polygon class="cls-9" points="343.69 132.68 344.9 133.5 343.69 134.31 343.69 132.68"/><polygon class="cls-10" points="359.27 132.36 360.06 134.82 362.65 134.82 360.56 136.34 361.36 138.81 359.27 137.28 357.17 138.81 357.97 136.34 355.88 134.82 358.47 134.82 359.27 132.36"/><line class="cls-10" x1="368.12" y1="132.89" x2="376.57" y2="132.89"/><line class="cls-10" x1="368.12" y1="135.58" x2="376.57" y2="135.58"/><line class="cls-10" x1="368.12" y1="138.28" x2="376.57" y2="138.28"/><polyline class="cls-11" points="382.1 119.21 382.1 314.37 77.65 314.37"/><rect class="cls-4" x="77.65" y="119.21" width="304.46" height="7.82"/><circle class="cls-12" cx="83.75" cy="123.12" r="1.83"/><circle class="cls-13" cx="88.77" cy="123.12" r="1.83"/><path class="cls-14" d="M95.63,123.12a1.83,1.83,0,1,1-1.83-1.83A1.83,1.83,0,0,1,95.63,123.12Z"/><rect class="cls-12" x="253.4" y="290.93" width="105.25" height="11.9"/><circle class="cls-12" cx="114.69" cy="166.29" r="13.87"/><rect class="cls-15" x="135.47" y="160.47" width="54.24" height="4.71"/><rect class="cls-15" x="135.47" y="167.41" width="39.87" height="4.71"/><rect class="cls-3" x="263.83" y="160.47" width="27.12" height="4.71"/><rect class="cls-3" x="297.68" y="160.47" width="27.12" height="4.71"/><line class="cls-16" x1="101.35" y1="185.38" x2="358.4" y2="185.38"/><rect class="cls-15" x="101.35" y="245.03" width="88.36" height="7.11"/><rect class="cls-3" x="101.35" y="258.95" width="122.95" height="3.15"/><rect class="cls-3" x="101.35" y="265.04" width="112.22" height="3.15"/><rect class="cls-3" x="101.35" y="271.13" width="103.14" height="3.15"/><rect class="cls-3" x="101.35" y="277.22" width="122.95" height="3.15"/><g class="cls-17"><rect x="102.35" y="291.93" width="42.57" height="11.9" rx="5.95"/></g><rect class="cls-14" x="101.35" y="290.93" width="42.57" height="11.9" rx="5.95"/><g class="cls-17"><rect x="151.38" y="291.93" width="42.57" height="11.9" rx="5.95"/></g><rect class="cls-4" x="150.38" y="290.93" width="42.57" height="11.9" rx="5.95"/><rect class="cls-12" x="101.35" y="197.17" width="17.95" height="17.95"/><line class="cls-18" x1="101.35" y1="197.17" x2="119.3" y2="215.12"/><line class="cls-18" x1="119.3" y1="197.17" x2="101.35" y2="215.12"/><rect class="cls-12" x="126.49" y="197.17" width="17.95" height="17.95"/><line class="cls-18" x1="126.49" y1="197.17" x2="144.44" y2="215.12"/><line class="cls-18" x1="144.44" y1="197.17" x2="126.49" y2="215.12"/><rect class="cls-12" x="151.63" y="197.17" width="17.95" height="17.95"/><line class="cls-18" x1="151.63" y1="197.17" x2="169.58" y2="215.12"/><line class="cls-18" x1="169.58" y1="197.17" x2="151.63" y2="215.12"/><g class="cls-17"><rect x="144.9" y="182.66" width="15.85" height="93.36" transform="translate(-78.92 378.49) rotate(-89.09)"/></g><rect class="cls-12" x="142.9" y="181.66" width="15.85" height="93.36" transform="translate(-79.89 375.5) rotate(-89.09)"/><line class="cls-8" x1="297.33" y1="11.94" x2="297.33" y2="90.04"/><path class="cls-3" d="M302,107.38a1.3,1.3,0,0,0-1.26,1.35,3.51,3.51,0,0,1-2.88,3.45,3.75,3.75,0,0,1-1.25,0,3.12,3.12,0,0,1-1.14-.41,3.52,3.52,0,0,1-1.56-1.88,3.34,3.34,0,0,1,0-2.47c1.85-3.73,5.55-6.1,5.55-9.83a6.82,6.82,0,1,0-4.67-.1c-.24,2.61-3.29,5-4.57,8.48a7.22,7.22,0,0,0,.16,5.1,7,7,0,0,0,3.3,3.63,6.78,6.78,0,0,0,4.66.59,6.47,6.47,0,0,0,3.76-2.45,6.19,6.19,0,0,0,1.22-4.11v-.13A1.3,1.3,0,0,0,302,107.38Zm-4.71-19a2.81,2.81,0,0,1,1.61,5.12,2.34,2.34,0,0,0-1.84-.64,2.38,2.38,0,0,0-1.39.63,2.81,2.81,0,0,1,1.62-5.11Z"/><g class="cls-17"><rect x="219.86" y="184.95" width="174.32" height="102.84" transform="translate(-29.32 44) rotate(-7.83)"/><polygon points="348.33 215.13 304.38 273.08 266.38 244.26 227.22 295.91 227.67 299.18 400.37 275.44 397.17 252.17 348.33 215.13"/><path d="M383,178.07,395.86,272,231.09,294.67l-12.91-94L383,178.07m3.42-4.51-172.7,23.73,14,101.89,172.7-23.74-14-101.88Z"/><circle cx="296.69" cy="217.1" r="14.51" transform="translate(-58.43 312.24) rotate(-51.19)"/></g><rect class="cls-15" x="209.86" y="167.95" width="174.32" height="102.84" transform="translate(-27.1 42.48) rotate(-7.83)"/><polygon class="cls-12" points="338.33 198.13 294.38 256.08 256.38 227.26 217.22 278.91 217.67 282.18 390.37 258.44 387.17 235.17 338.33 198.13"/><path class="cls-19" d="M373,161.07l12.91,94L221.09,277.67l-12.91-94L373,161.07m3.42-4.51-172.7,23.73,14,101.89,172.7-23.74-14-101.88Z"/><circle class="cls-14" cx="286.69" cy="200.1" r="14.51" transform="translate(-48.91 298.11) rotate(-51.19)"/><polyline class="cls-9" points="214.9 178.75 207.09 205.17 216.66 178.51"/><polyline class="cls-9" points="359.59 158.48 380.01 183.03 357.83 158.24"/><path class="cls-9" d="M357.83,158.24l-57.74-44.73a3.52,3.52,0,0,0-5.67-.1l-77.76,65.1"/><circle class="cls-8" cx="288.81" cy="11.94" r="8.52" transform="translate(76.15 207.71) rotate(-45)"/><circle class="cls-8" cx="288.81" cy="11.94" r="3.15"/><path class="cls-4" d="M353.06,277c-3.27,14.86-2,34,5.22,45.11,5.7,8.8,15.84,11.52,24.88,18.48l-.42,4.35,4-4.76s-5-5-19.57-20c-3.56-3.68-1-18.23-.09-21.86,4.53-6,0-12.35-3-21.31Z"/><path class="cls-20" d="M383.16,340.55l-.42,4.35,4-4.76L385,338.45A1.94,1.94,0,0,1,383.16,340.55Z"/><path class="cls-21" d="M348.88,277c-9.55,18.83-9.15,30.91,4.66,74.89l-4.41,2.73h6.73s-.29-46.48,2.42-57.08c4.52-6,4.59-11.58,1.59-20.54Z"/><path class="cls-20" d="M349.13,354.58h6.73v-2.73s-1.45.85-2.32,0Z"/><path class="cls-6" d="M359.23,233.57c-1.68,5.13-6.41,7.64-8.88,7.18s-3.74-4.67-2.86-9.39,3.58-7.39,6.07-7.7C357.13,223.22,361.56,226.44,359.23,233.57Z"/><rect class="cls-6" x="353.54" y="234.99" width="4.63" height="11.63"/><path class="cls-20" d="M354.46,243.87c-6.08,1.11-10.17,11.08-10.78,14.66-.35,2.11-.12,4.17,2.23,8.29,3.28,5.74,3,10.14,3,10.14h15.24c0-4.56,2.93-9.67,4.66-16.78S364.77,242,354.46,243.87Z"/><path class="cls-22" d="M359.67,244.1s8.84,1.07,12.48-.23c8.58-3.06,12.3-10.43,12.59-18h2.32s3.11,22.44-18.12,30.45Z"/><path class="cls-6" d="M384.74,225.84c-1.55-1.71-.57-3.12-1.18-4.46s.14-2.88,1.82.79l-.7-5.14s2,1,2.38,8.81Z"/><path class="cls-22" d="M354.07,245.06c4.55.89,4,9.13-1.21,13.9-4.91,4.5-18.77,8.44-37.43,10.85l-.6-2a65.24,65.24,0,0,0,19.51-7.43C343.42,254.82,347.5,243.77,354.07,245.06Z"/><path class="cls-6" d="M314.83,267.77c-2-.95-3.06.26-4.48.05s-2.11.76,1.76,1.34l-5.32.77s1.25,1.47,8.64-.12Z"/><path class="cls-23" d="M348.2,224.28c-2.34,4.1,5.34,3.09,5.34,7.11s-8.42,4.77-10,10c-1.79,6,10.43,4.39,8.59,10.61-2.7,9.13-20.59,9.9-13.78,19.58,5,7,17.06,3,15.69,14.54-1.33,11.18,19.08,8.93,20.84-.24,1.16-6.09-10.21-9.8-3.84-14.4,7.79-5.63,17.65-13.17,9.22-19.56-4.27-3.22-15.8-5.23-17-10.41s5.64-13.15-2.46-18.45C352.53,217.64,348.2,224.28,348.2,224.28Z"/><path class="cls-4" d="M143.61,103s4,16.21,12.45,16.21c19.4,0,24.95-7.43,32.71-6.92,4.12.27,14.45,6.92,14.45,6.92H209L205,116.65S193.78,102,186.3,101.11c-9.48-1.15-22,8.26-28.77,1.88Z"/><path class="cls-20" d="M203.22,119.2l-1.31-.82a3.18,3.18,0,0,0,3-1.73L209,119.2Z"/><polyline class="cls-8" points="284.41 4.65 194.31 61.48 181.35 73.82 181.35 116.65"/><path class="cls-3" d="M179.07,75.52c.8-1.36,2.66-4,3.59-2.26.58,1.12.35,3.1-.19,3.29a11,11,0,0,1-1.92.32Z"/><path class="cls-12" d="M141.16,72.85c7.38-4.16,19.34,9.17,23,9.85,5.86,1.11,14.21-6.58,14.95-7.18l1.48,1.35S171.41,90,162.76,90.24,131.74,78.16,141.16,72.85Z"/><path class="cls-6" d="M179.07,75.52a3,3,0,0,1,1.76-2.42c1.4-.76,1.1-1.49,1.57-1.49s1,1.36-.22,1.84c0,0,0,2.42-2.05,3Z"/><path class="cls-6" d="M182.66,73.26c.06.51-.51.43-1,.41-.74,0-1.5-.14-1.37.82.2,1.52,0,2.38.7,2.42s1.24.2,1.72,0S183.39,74.41,182.66,73.26Z"/><path class="cls-21" d="M158.24,98.8c9.54,18.81,16.9,38.09,34.56,54.78l5-1.45-4.5,5s-36.92-21.61-46.94-34.85c-4.52-6-5.65-10.36-2.66-19.31Z"/><path class="cls-20" d="M193.28,157.13l4.5-5-5,1.45a2.19,2.19,0,0,1-1.56,2.33Z"/><path class="cls-6" d="M137.14,63.61c2.75,4.11,7.54,5.14,9.59,4.12s2.14-5,.19-9-5-5.62-7.25-5.28C136.42,54,133.33,57.92,137.14,63.61Z"/><polygon class="cls-6" points="138.85 75.52 145.38 73.68 142.49 63.45 135.43 59.38 138.85 75.52"/><path class="cls-15" d="M143.81,71.49c-6.91.87-12.86,2.84-9.93,26,2.76,21.75,9.93,21.68,9.93,21.68s21.77,1.53,26.17-14.89A34.12,34.12,0,0,1,157.72,86C154.82,74.23,149.15,70.82,143.81,71.49Z"/><path class="cls-24" d="M143.81,71.49l47.85-10,1.13,2.6s-32.95,21.37-44.47,22.11S135.48,74,143.81,71.49Z"/><path class="cls-24" d="M191.66,61.45s2-2.71,3.13-2.53,2.66,2.8,2,3.8-4,1.33-4,1.33Z"/><path class="cls-4" d="M137.76,70.37A5.5,5.5,0,0,0,141.15,65s-1.68.88-2.16-2.77c-.23-1.67,1.41-2,2.17-.17,1.05.39,2.48-.33,2.26-2.26-.35-3.13,3.55-2.61,3.69-6.31.18-4.8-9.39-11.1-11.2-6.73-1.49,3.58-1,5.72-5.58,5.77C122,52.57,130.52,72.05,137.76,70.37Z"/><path class="cls-4" d="M110,277c3.26,14.86,2,34-5.22,45.11-5.7,8.8-15.85,11.52-24.89,18.48l.42,4.35-4-4.76s5-5,19.57-20c3.57-3.68,1-18.23.09-21.86-4.52-6,0-12.35,3-21.31Z"/><path class="cls-20" d="M79.86,340.55l.42,4.35-4-4.76L78,338.45A1.93,1.93,0,0,0,79.86,340.55Z"/><path class="cls-21" d="M114.14,277c9.55,18.83,9.16,30.91-4.66,74.89l4.41,2.73h-6.73s.29-46.48-2.41-57.08c-4.53-6-4.6-11.58-1.6-20.54Z"/><path class="cls-20" d="M113.89,354.58h-6.73v-2.73s1.45.85,2.32,0Z"/><path class="cls-6" d="M103.8,233.57c1.68,5.13,6.41,7.64,8.87,7.18s3.75-4.67,2.86-9.39-3.58-7.39-6.07-7.7C105.9,223.22,101.47,226.44,103.8,233.57Z"/><rect class="cls-6" x="101.35" y="234.99" width="8.13" height="11.63" transform="translate(210.83 481.6) rotate(180)"/><path class="cls-13" d="M103.36,244.1s-8.84,1.07-12.48-.23c-8.58-3.06-12.3-10.43-12.6-18H76s-3.11,22.44,18.12,30.45Z"/><path class="cls-6" d="M78.28,225.84c1.55-1.71.57-3.12,1.18-4.46s-.13-2.88-1.81.79V217s-1.32,1-1.69,8.81Z"/><path class="cls-25" d="M112.86,245.73c-5.65-2.8-8-1.63-17.46-1.23S94,267.69,94,293.34c0,0,8.21,4.77,28.65,0C122.64,293.34,121.84,250.18,112.86,245.73Z"/><path class="cls-26" d="M108.9,236.76c1.41,2.47-6.66,4.63-8.8,2.15S90.73,234.48,96,224.8c2.31-4.21,3.19-10.39,6.62-11,8.23-1.43,12.18,4.89,12,8.61-.26,5.15-2.26,8.24-4.33,9.26C108.92,232.38,106.72,232.93,108.9,236.76Z"/><path class="cls-13" d="M108.2,244.12c9.8-.05,17,5.34,24.21,6,8.32.79,16.61-4.87,18.28-9.33l3.74-.65s-5.67,12-21.66,17.23c-8,2.64-17.86,3.05-23.81.31S101.33,244.15,108.2,244.12Z"/><path class="cls-6" d="M150.69,240.8c-1.18-1.75.61-3.55.86-4.86s.92-2.29,1.58-2.43c1.11-.23.77,1.32.42,2.8a.19.19,0,0,0,.26.23,10.85,10.85,0,0,1,4.8-1.15c.59.06.95.7-1.41,1.88a5.18,5.18,0,0,0-2.77,2.88Z"/><g class="cls-17"><rect x="150.75" y="310.2" width="111.25" height="29.63"/><rect x="158.23" y="316.03" width="17.95" height="17.95"/><line class="cls-27" x1="158.23" y1="316.03" x2="176.18" y2="333.98"/><line class="cls-27" x1="176.18" y1="316.03" x2="158.23" y2="333.98"/><rect x="182.43" y="320" width="67.05" height="2.11"/><rect x="182.43" y="327.9" width="67.05" height="2.11"/><rect x="182.43" y="323.95" width="59.82" height="2.11"/></g><rect class="cls-12" x="149.75" y="309.2" width="111.25" height="29.63"/><rect class="cls-15" x="157.23" y="315.03" width="17.95" height="17.95"/><line class="cls-28" x1="157.23" y1="315.03" x2="175.18" y2="332.98"/><line class="cls-28" x1="175.18" y1="315.03" x2="157.23" y2="332.98"/><rect class="cls-15" x="181.43" y="319" width="67.05" height="2.11"/><rect class="cls-15" x="181.43" y="326.9" width="67.05" height="2.11"/><rect class="cls-15" x="181.43" y="322.95" width="59.82" height="2.11"/><g class="cls-17"><rect x="132.08" y="322.95" width="111.25" height="29.63"/><rect x="139.55" y="328.79" width="17.95" height="17.95"/><line class="cls-27" x1="139.55" y1="328.79" x2="157.5" y2="346.74"/><line class="cls-27" x1="157.5" y1="328.79" x2="139.55" y2="346.74"/><rect x="163.75" y="332.76" width="67.05" height="2.11"/><rect x="163.75" y="340.66" width="67.05" height="2.11"/><rect x="163.75" y="336.71" width="59.82" height="2.11"/></g><rect class="cls-15" x="131.08" y="321.95" width="111.25" height="29.63"/><rect class="cls-12" x="138.55" y="327.79" width="17.95" height="17.95"/><line class="cls-29" x1="138.55" y1="327.79" x2="156.5" y2="345.74"/><line class="cls-29" x1="156.5" y1="327.79" x2="138.55" y2="345.74"/><rect class="cls-12" x="162.75" y="331.76" width="67.05" height="2.11"/><rect class="cls-12" x="162.75" y="339.66" width="67.05" height="2.11"/><rect class="cls-12" x="162.75" y="335.71" width="59.82" height="2.11"/></g></g></svg>