<?xml version="1.0" encoding="utf-8"?>
<!-- Generator: Adobe Illustrator 19.0.0, SVG Export Plug-In . SVG Version: 6.00 Build 0)  -->
<svg version="1.1" id="Layer_1" xmlns="http://www.w3.org/2000/svg" xmlns:xlink="http://www.w3.org/1999/xlink" x="0px" y="0px"
	 viewBox="100 629.4 550 491.1" style="enable-background:new 100 629.4 550 491.1;" xml:space="preserve">
<style type="text/css">
	.st0{fill:#E5E9ED;}
	.st1{fill:#BEC8D2;}
	.st2{fill:#174159;}
	.st3{fill:none;stroke:#174159;stroke-linecap:round;stroke-miterlimit:10;}
	.st4{fill:#F2F2F2;}
	.st5{fill:none;stroke:#BEC8D2;stroke-miterlimit:10;}
	.st6{fill:none;stroke:#BEC8D2;stroke-linecap:round;stroke-miterlimit:10;}
	.st7{fill:none;stroke:#BEC8D2;stroke-linecap:round;stroke-linejoin:round;}
	.st8{fill:none;stroke:#174159;stroke-linecap:round;stroke-linejoin:round;}
	.st9{fill:none;stroke:#174159;stroke-width:0.75;stroke-miterlimit:10;}
	.st10{fill:#67BF00;}
	.st11{fill:#29A6D2;}
	.st12{fill:#FB7625;}
	.st13{fill:#E6CADB;}
	.st14{fill:#FCDEF1;}
	.st15{fill:none;stroke:#174159;stroke-miterlimit:10;}
	.st16{opacity:0.2;}
	.st17{fill:#FA73C2;}
	.st18{fill:none;stroke:#F2F2F2;stroke-width:0.5;stroke-miterlimit:10;}
	.st19{fill:#FFFFFF;}
	.st20{fill:#2D80EA;}
	.st21{fill:#2E546A;}
	.st22{fill:#F98A4B;}
	.st23{fill:#AD811F;}
	.st24{fill:#DDCCA6;}
	.st25{fill:#BDE27D;}
	.st26{fill:#B6DD6B;}
	.st27{fill:#755908;}
	.st28{fill:#5BC0E4;}
	.st29{fill:#34E8E8;}
	.st30{fill:none;stroke:#000000;stroke-width:0.5;stroke-miterlimit:10;}
	.st31{fill:none;stroke:#7F7F7F;stroke-width:0.5;stroke-miterlimit:10;}
</style>
<g>
	<title>Prancheta 2</title>
	<path class="st0" d="M618.1,1109.2c0,3.1-112.6,5.6-251.5,5.6s-251.6-2.5-251.6-5.6c0-3.1,112.6-5.6,251.5-5.6
		S618.1,1106.1,618.1,1109.2z"/>
	<rect x="165.2" y="799.6" class="st0" width="402.8" height="258.2"/>
	<rect x="165.2" y="809.9" class="st1" width="402.8" height="22.6"/>
	<path class="st2" d="M189.1,818.6l2.3,2.4v3.2h-4.5V821L189.1,818.6 M189.1,817c-0.2,0-0.4,0.1-0.5,0.3l-2.7,2.9
		c-0.2,0.2-0.3,0.5-0.3,0.8v3.5c0,0.5,0.3,1,0.8,1h5.5c0.5-0.1,0.9-0.5,0.8-1v-3.5c0-0.3-0.1-0.6-0.3-0.8l-2.7-2.9
		C189.5,817.1,189.3,817,189.1,817L189.1,817z"/>
	<path class="st3" d="M199.8,823.7l3.2-2c0.2-0.1,0.3-0.3,0.2-0.6c0-0.1-0.1-0.2-0.2-0.2l-3.2-2"/>
	<path class="st3" d="M178.5,823.7l-3.2-2c-0.4-0.2-0.4-0.6,0-0.8l3.2-2"/>
	<path class="st4" d="M216.7,814.2h304.7c1.9,0,3.4,1.5,3.4,3.4v7.2c0,1.9-1.5,3.4-3.4,3.4H216.7c-1.9,0-3.4-1.5-3.4-3.4v-7.2
		C213.3,815.8,214.8,814.2,216.7,814.2z"/>
	<rect x="317.7" y="819.1" class="st1" width="102.7" height="4.2"/>
	<path class="st5" d="M224.2,819.1c1.2,1.2,1.2,3.1,0,4.2c-1.2,1.2-3.1,1.2-4.2,0c-1.2-1.2-1.2-3.1,0-4.2c0,0,0,0,0,0
		C221.1,818,223,818,224.2,819.1C224.2,819.1,224.2,819.1,224.2,819.1z"/>
	<line class="st6" x1="224.2" y1="823.4" x2="226" y2="825.2"/>
	<path class="st6" d="M520.2,821.2c0,1.7-1.3,3-3,3s-3-1.3-3-3c0-1.7,1.3-3,3-3l0,0"/>
	<polygon class="st7" points="517.2,817.4 518.8,818.5 517.2,819.6 	"/>
	<polygon class="st8" points="537.8,817 538.8,820.2 542.3,820.2 539.5,822.2 540.6,825.5 537.8,823.5 535,825.5 536.1,822.2 
		533.3,820.2 536.7,820.2 	"/>
	<line class="st8" x1="549.5" y1="817.7" x2="560.7" y2="817.7"/>
	<line class="st8" x1="549.5" y1="821.2" x2="560.7" y2="821.2"/>
	<line class="st8" x1="549.5" y1="824.8" x2="560.7" y2="824.8"/>
	<polyline class="st9" points="568,799.6 568,1057.8 165.2,1057.8 	"/>
	<rect x="165.2" y="799.6" class="st2" width="402.8" height="10.3"/>
	<circle class="st10" cx="173.2" cy="804.7" r="2.4"/>
	<circle class="st11" cx="179.9" cy="804.7" r="2.4"/>
	<path class="st12" d="M189,804.7c0,1.3-1.1,2.4-2.4,2.4c-1.3,0-2.4-1.1-2.4-2.4c0-1.3,1.1-2.4,2.4-2.4
		C187.9,802.3,189,803.4,189,804.7L189,804.7z"/>
	<rect x="397.7" y="1026.8" class="st13" width="139.3" height="15.7"/>
	<circle class="st13" cx="214.2" cy="861.9" r="18.4"/>
	<rect x="241.7" y="854.2" class="st14" width="71.8" height="6.2"/>
	<rect x="241.7" y="863.4" class="st14" width="52.8" height="6.2"/>
	<rect x="411.5" y="854.2" class="st1" width="35.9" height="6.2"/>
	<rect x="456.3" y="854.2" class="st1" width="35.9" height="6.2"/>
	<line class="st15" x1="196.5" y1="887.1" x2="536.6" y2="887.1"/>
	<rect x="196.5" y="966.1" class="st14" width="116.9" height="9.4"/>
	<rect x="196.5" y="984.5" class="st1" width="162.7" height="4.2"/>
	<rect x="196.5" y="992.5" class="st1" width="148.5" height="4.2"/>
	<rect x="196.5" y="1000.6" class="st1" width="136.5" height="4.2"/>
	<rect x="196.5" y="1008.6" class="st1" width="162.7" height="4.2"/>
	<g class="st16">
		<path d="M205.7,1028.1h40.6c4.3,0,7.9,3.5,7.9,7.9l0,0c0,4.3-3.5,7.9-7.9,7.9h-40.6c-4.3,0-7.9-3.5-7.9-7.9l0,0
			C197.8,1031.6,201.4,1028.1,205.7,1028.1z"/>
	</g>
	<path class="st17" d="M204.4,1026.8H245c4.3,0,7.9,3.5,7.9,7.9v0c0,4.3-3.5,7.9-7.9,7.9h-40.6c-4.3,0-7.9-3.5-7.9-7.9v0
		C196.5,1030.3,200.1,1026.8,204.4,1026.8z"/>
	<g class="st16">
		<path d="M270.6,1028.1h40.6c4.3,0,7.9,3.5,7.9,7.9l0,0c0,4.3-3.5,7.9-7.9,7.9h-40.6c-4.3,0-7.9-3.5-7.9-7.9l0,0
			C262.7,1031.6,266.2,1028.1,270.6,1028.1z"/>
	</g>
	<path class="st2" d="M269.3,1026.8h40.6c4.3,0,7.9,3.5,7.9,7.9v0c0,4.3-3.5,7.9-7.9,7.9h-40.6c-4.3,0-7.9-3.5-7.9-7.9v0
		C261.4,1030.3,264.9,1026.8,269.3,1026.8z"/>
	<rect x="196.5" y="902.7" class="st13" width="23.8" height="23.8"/>
	<line class="st18" x1="196.5" y1="902.7" x2="220.3" y2="926.5"/>
	<line class="st18" x1="220.3" y1="902.7" x2="196.5" y2="926.5"/>
	<rect x="229.8" y="902.7" class="st13" width="23.8" height="23.8"/>
	<line class="st18" x1="229.8" y1="902.7" x2="253.5" y2="926.5"/>
	<line class="st18" x1="253.5" y1="902.7" x2="229.8" y2="926.5"/>
	<rect x="263.1" y="902.7" class="st13" width="23.8" height="23.8"/>
	<line class="st18" x1="263.1" y1="902.7" x2="286.8" y2="926.5"/>
	<line class="st18" x1="286.8" y1="902.7" x2="263.1" y2="926.5"/>
	<g class="st16">
		
			<rect x="254.1" y="883.5" transform="matrix(-1.588189e-002 0.9999 -0.9999 -1.588189e-002 1213.9878 695.6962)" width="21" height="123.5"/>
	</g>
	
		<rect x="251.5" y="882.2" transform="matrix(-1.588189e-002 0.9999 -0.9999 -1.588189e-002 1209.9661 696.992)" class="st13" width="21" height="123.5"/>
	<line class="st6" x1="455.8" y1="657.6" x2="455.8" y2="761"/>
	<path class="st1" d="M462,783.9c-0.9,0-1.7,0.8-1.7,1.8c0,0,0,0,0,0c0,2.2-1.6,4.2-3.8,4.6c-0.5,0.1-1.1,0.1-1.7,0
		c-0.5-0.1-1-0.3-1.5-0.5c-1-0.6-1.7-1.4-2.1-2.5c-0.4-1-0.4-2.2,0-3.3c2.4-4.9,7.3-8.1,7.3-13c4.7-1.6,7.2-6.7,5.6-11.5
		c-1.6-4.7-6.7-7.2-11.5-5.6s-7.2,6.7-5.6,11.5c0.9,2.5,2.8,4.5,5.3,5.5c-0.3,3.5-4.4,6.6-6,11.2c-0.8,2.2-0.7,4.6,0.2,6.7
		c0.8,2.1,2.4,3.8,4.4,4.8c1.9,1,4.1,1.3,6.2,0.8c2-0.5,3.8-1.6,5-3.2c1.2-1.6,1.7-3.5,1.6-5.4v-0.2
		C463.7,784.6,462.9,783.9,462,783.9z M455.8,758.8c2.1,0,3.7,1.7,3.7,3.7c0,1.2-0.6,2.4-1.6,3.1c-0.6-0.6-1.5-0.9-2.4-0.8
		c-0.7,0.1-1.3,0.4-1.8,0.8c-1.7-1.2-2.1-3.5-0.9-5.2C453.4,759.4,454.6,758.8,455.8,758.8L455.8,758.8z"/>
	<g class="st16">
		
			<rect x="353.4" y="886.5" transform="matrix(-0.9907 0.1362 -0.1362 -0.9907 1063.0443 1836.3619)" width="230.7" height="136.1"/>
		<polygon points="523.3,926.5 465.2,1003.2 414.9,965 363.1,1033.4 363.7,1037.7 592.2,1006.3 587.9,975.5 		"/>
		<path d="M569.2,877.5l17,124.3l-218,30l-17.1-124.4L569.2,877.5 M573.7,871.5l-228.5,31.4l18.5,134.8l228.5-31.4L573.7,871.5
			L573.7,871.5z"/>
		<circle cx="455" cy="929.1" r="19.2"/>
	</g>
	
		<rect x="340.1" y="864" transform="matrix(-0.9907 0.1362 -0.1362 -0.9907 1033.6331 1793.3898)" class="st14" width="230.7" height="136.1"/>
	<polygon class="st13" points="510.1,904 451.9,980.7 401.7,942.5 349.8,1010.9 350.4,1015.2 578.9,983.8 574.7,953 	"/>
	<path class="st19" d="M556,855L573,979.3L355,1009.2l-17.1-124.4L556,855 M560.5,849L332,880.4l18.5,134.8L579,983.8L560.5,849
		L560.5,849z"/>
	<circle class="st13" cx="441.8" cy="906.6" r="19.2"/>
	<polyline class="st7" points="346.8,878.4 336.4,913.3 349.1,878 	"/>
	<polyline class="st7" points="538.2,851.5 565.2,884 535.9,851.2 	"/>
	<path class="st7" d="M535.9,851.2L459.5,792c-1.5-2.1-4.4-2.6-6.5-1.1c-0.4,0.3-0.7,0.6-1,1L349.1,878"/>
	<circle class="st6" cx="444.6" cy="657.6" r="11.3"/>
	<circle class="st6" cx="444.6" cy="657.6" r="4.2"/>
	<path class="st2" d="M529.6,1008.4c-4.3,19.7-2.6,45,6.9,59.7c7.5,11.6,21,15.2,32.9,24.5l-0.6,5.8l5.3-6.3c0,0-6.6-6.6-25.9-26.5
		c-4.7-4.9-1.3-24.1-0.1-28.9c6-7.9,0-16.3-4-28.2L529.6,1008.4z"/>
	<path class="st20" d="M569.4,1092.4l-0.6,5.8l5.3-6.3l-2.3-2.2C572,1091.1,570.9,1092.3,569.4,1092.4
		C569.5,1092.4,569.4,1092.4,569.4,1092.4z"/>
	<path class="st21" d="M524,1008.4c-12.6,24.9-12.1,40.9,6.2,99.1l-5.8,3.6h8.9c0,0-0.4-61.5,3.2-75.5c6-7.9,6.1-15.3,2.1-27.2
		L524,1008.4z"/>
	<path class="st20" d="M524.4,1111h8.9v-3.6c0,0-1.9,1.1-3.1,0L524.4,1111z"/>
	<path class="st19" d="M537.7,950.9c-2.2,6.8-8.5,10.1-11.7,9.5s-4.9-6.2-3.8-12.4s4.7-9.8,8-10.2
		C535,937.2,540.8,941.5,537.7,950.9z"/>
	<rect x="530.2" y="952.8" class="st4" width="6.1" height="15.4"/>
	<path class="st20" d="M531.4,964.5c-8,1.5-13.5,14.7-14.3,19.4c-0.5,2.8-0.2,5.5,3,11c4.3,7.6,4,13.4,4,13.4h20.2
		c0-6,3.9-12.8,6.2-22.2C552.7,976.7,545.1,962,531.4,964.5z"/>
	<path class="st22" d="M538.3,964.8c0,0,11.7,1.4,16.5-0.3c11.4-4,16.3-13.8,16.7-23.8h3.1c0,0,4.1,29.7-24,40.3L538.3,964.8z"/>
	<path class="st19" d="M571.5,940.7c-2.1-2.3-0.8-4.1-1.6-5.9c-0.8-1.8,0.2-3.8,2.4,1l-0.9-6.8c0,0,2.6,1.3,3.1,11.7H571.5z"/>
	<path class="st22" d="M530.9,966.1c6,1.2,5.3,12.1-1.6,18.4c-6.5,6-24.8,11.2-49.5,14.4l-0.8-2.6c9.1-1.9,17.8-5.2,25.8-9.8
		C516.8,979,522.2,964.4,530.9,966.1z"/>
	<path class="st19" d="M479,996.1c-2.6-1.3-4,0.3-5.9,0.1c-1.9-0.3-2.8,1,2.3,1.8l-7,1c0,0,1.7,1.9,11.4-0.2L479,996.1z"/>
	<path class="st23" d="M523.1,938.6c-3.1,5.4,7.1,4.1,7.1,9.4s-11.1,6.3-13.2,13.2c-2.4,7.9,13.8,5.8,11.4,14
		c-3.6,12.1-27.2,13.1-18.2,25.9c6.6,9.3,22.6,4,20.8,19.2c-1.8,14.8,25.2,11.8,27.6-0.3c1.5-8.1-13.5-13-5.1-19.1
		c10.3-7.4,23.4-17.4,12.2-25.9c-5.6-4.3-20.9-6.9-22.5-13.8c-1.6-6.9,7.5-17.4-3.3-24.4C528.9,929.8,523.1,938.6,523.1,938.6z"/>
	<path class="st2" d="M252.4,778.1c0,0,5.3,21.4,16.5,21.4c25.7,0,33-9.8,43.3-9.2c5.5,0.4,19.1,9.2,19.1,9.2h7.6l-5.3-3.4
		c0,0-14.8-19.4-24.7-20.6c-12.5-1.5-29.1,10.9-38.1,2.5L252.4,778.1z"/>
	<path class="st20" d="M331.3,799.6l-1.7-1.1c1.7,0.1,3.2-0.8,4-2.3l5.4,3.4H331.3z"/>
	<polyline class="st6" points="438.7,648 319.5,723.2 302.4,739.5 302.4,796.2 	"/>
	<path class="st1" d="M299.4,741.8c1.1-1.8,3.5-5.3,4.8-3c0.8,1.5,0.5,4.1-0.3,4.4c-0.8,0.2-1.7,0.4-2.5,0.4L299.4,741.8z"/>
	<path class="st10" d="M249.2,738.2c9.8-5.5,25.6,12.1,30.4,13c7.8,1.5,18.8-8.7,19.8-9.5l2,1.8c0,0-12.1,17.4-23.6,17.7
		C266.3,761.6,236.7,745.3,249.2,738.2z"/>
	<path class="st24" d="M299.4,741.8c0.2-1.4,1-2.6,2.3-3.2c1.9-1,1.5-2,2.1-2c0.6,0,1.3,1.8-0.3,2.4c0,0,0,3.2-2.7,4L299.4,741.8z"
		/>
	<path class="st24" d="M304.1,738.8c0.1,0.7-0.7,0.6-1.3,0.5c-1,0-2-0.2-1.8,1.1c0.3,2,0,3.1,0.9,3.2s1.6,0.3,2.3,0
		S305.1,740.3,304.1,738.8z"/>
	<path class="st21" d="M271.8,772.6c12.6,24.9,22.4,50.4,45.7,72.5l6.6-1.9l-6,6.6c0,0-48.9-28.6-62.1-46.1
		c-6-7.9-7.5-13.7-3.5-25.6L271.8,772.6z"/>
	<path class="st20" d="M318.2,849.7l6-6.6l-6.6,1.9c0.1,1.4-0.7,2.7-2.1,3.1L318.2,849.7z"/>
	<path class="st24" d="M243.9,726c3.6,5.4,10,6.8,12.7,5.5c2.7-1.3,2.8-6.6,0.3-11.9c-2.6-5.3-6.6-7.4-9.6-7
		C242.9,713.3,238.8,718.5,243.9,726z"/>
	<polygon class="st24" points="246.1,741.8 254.8,739.3 251,725.8 241.6,720.4 	"/>
	<path class="st25" d="M252.7,736.4c-9.1,1.2-17,3.8-13.1,34.4c3.7,28.8,13.1,28.7,13.1,28.7s28.8,2,34.6-19.7
		c-7.9-6-13.6-14.6-16.2-24.2C267.3,740.1,259.8,735.5,252.7,736.4z"/>
	<path class="st26" d="M252.7,736.4l63.3-13.2l1.5,3.4c0,0-43.6,28.3-58.8,29.3C243.4,756.9,241.7,739.8,252.7,736.4z"/>
	<path class="st24" d="M316,723.2c0,0,2.6-3.6,4.1-3.3c1.5,0.2,3.5,3.7,2.6,5s-5.3,1.8-5.3,1.8L316,723.2z"/>
	<path class="st2" d="M244.7,735c2.8-1.2,4.6-4,4.5-7.1c0,0-2.2,1.2-2.9-3.7c-0.3-2.2,1.9-2.6,2.9-0.2c1.4,0.5,3.3-0.4,3-3
		c-0.5-4.1,4.7-3.5,4.9-8.3c0.2-6.4-12.4-14.7-14.8-8.9c-2,4.7-1.3,7.6-7.4,7.6C223.8,711.4,235.1,737.2,244.7,735z"/>
	<path class="st2" d="M208,1008.4c4.3,19.7,2.6,45-6.9,59.7c-7.5,11.6-21,15.2-32.9,24.5l0.6,5.8l-5.3-6.3c0,0,6.6-6.6,25.9-26.5
		c4.7-4.9,1.3-24.1,0.1-28.9c-6-7.9,0-16.3,4-28.2L208,1008.4z"/>
	<path class="st20" d="M168.1,1092.4l0.6,5.8l-5.3-6.3l2.3-2.2c-0.1,1.4,0.9,2.6,2.3,2.8C168,1092.4,168,1092.4,168.1,1092.4z"/>
	<path class="st21" d="M213.4,1008.4c12.6,24.9,12.1,40.9-6.2,99.1l5.8,3.6h-8.9c0,0,0.4-61.5-3.2-75.5c-6-7.9-6.1-15.3-2.1-27.2
		L213.4,1008.4z"/>
	<path class="st20" d="M213.1,1111h-8.9v-3.6c0,0,1.9,1.1,3.1,0L213.1,1111z"/>
	<path class="st27" d="M199.8,950.9c2.2,6.8,8.5,10.1,11.7,9.5s5-6.2,3.8-12.4c-1.2-6.2-4.7-9.8-8-10.2
		C202.5,937.2,196.7,941.5,199.8,950.9z"/>
	<rect x="196.5" y="952.8" class="st27" width="10.8" height="15.4"/>
	<path class="st11" d="M199.2,964.8c0,0-11.7,1.4-16.5-0.3c-11.4-4-16.3-13.8-16.7-23.8h-3c0,0-4.1,29.7,24,40.3L199.2,964.8z"/>
	<path class="st27" d="M166,940.7c2.1-2.3,0.8-4.1,1.6-5.9c0.8-1.8-0.2-3.8-2.4,1V929c0,0-1.7,1.3-2.2,11.7L166,940.7z"/>
	<path class="st28" d="M211.8,967c-7.5-3.7-10.6-2.2-23.1-1.6c-12.5,0.5-1.9,30.7-1.9,64.6c0,0,10.9,6.3,37.9,0
		C224.7,1030,223.6,972.9,211.8,967z"/>
	<path class="st29" d="M206.5,955.1c1.9,3.3-8.8,6.1-11.6,2.8c-2.8-3.3-12.4-5.9-5.4-18.7c3.1-5.6,4.2-13.7,8.8-14.6
		c10.9-1.9,16.1,6.5,15.9,11.4c-0.3,6.8-3,10.9-5.7,12.3C206.5,949.3,203.6,950,206.5,955.1z"/>
	<path class="st11" d="M205.6,964.9c13-0.1,22.5,7.1,32,7.9c11,1,22-6.4,24.2-12.3l4.9-0.9c0,0-7.5,15.9-28.7,22.8
		c-10.6,3.5-23.6,4-31.5,0.4C198.7,979.2,196.5,964.9,205.6,964.9z"/>
	<path class="st27" d="M261.8,960.5c-1.6-2.3,0.8-4.7,1.1-6.4c0.3-1.7,1.2-3,2.1-3.2c1.5-0.3,1,1.7,0.6,3.7c0,0.1,0,0.3,0.2,0.3
		c0.1,0,0.1,0,0.2,0c2-1,4.1-1.5,6.4-1.5c0.8,0.1,1.3,0.9-1.9,2.5c-1.7,0.7-3,2.1-3.7,3.8L261.8,960.5z"/>
	<g class="st16">
		<rect x="261.9" y="1052.3" width="147.2" height="39.2"/>
		<rect x="271.8" y="1060" width="23.8" height="23.8"/>
		<line class="st30" x1="271.8" y1="1060" x2="295.5" y2="1083.7"/>
		<line class="st30" x1="295.5" y1="1060" x2="271.8" y2="1083.7"/>
		<rect x="303.8" y="1065.3" width="88.7" height="2.8"/>
		<rect x="303.8" y="1075.7" width="88.7" height="2.8"/>
		<rect x="303.8" y="1070.5" width="79.2" height="2.8"/>
	</g>
	<rect x="260.6" y="1051" class="st13" width="147.2" height="39.2"/>
	<rect x="270.5" y="1058.7" class="st14" width="23.8" height="23.8"/>
	<line class="st31" x1="270.5" y1="1058.7" x2="294.2" y2="1082.4"/>
	<line class="st31" x1="294.2" y1="1058.7" x2="270.5" y2="1082.4"/>
	<rect x="302.5" y="1063.9" class="st14" width="88.7" height="2.8"/>
	<rect x="302.5" y="1074.4" class="st14" width="88.7" height="2.8"/>
	<rect x="302.5" y="1069.2" class="st25" width="79.2" height="2.8"/>
	<g class="st16">
		<rect x="237.2" y="1069.2" width="147.2" height="39.2"/>
		<rect x="247.1" y="1076.9" width="23.8" height="23.8"/>
		<line class="st30" x1="247.1" y1="1076.9" x2="270.8" y2="1100.6"/>
		<line class="st30" x1="270.8" y1="1076.9" x2="247.1" y2="1100.6"/>
		<rect x="279.1" y="1082.1" width="88.7" height="2.8"/>
		<rect x="279.1" y="1092.6" width="88.7" height="2.8"/>
		<rect x="279.1" y="1087.4" width="79.2" height="2.8"/>
	</g>
	<rect x="235.9" y="1067.8" class="st14" width="147.2" height="39.2"/>
	<rect x="245.7" y="1075.6" class="st13" width="23.8" height="23.8"/>
	<line class="st31" x1="245.7" y1="1075.6" x2="269.5" y2="1099.3"/>
	<line class="st31" x1="269.5" y1="1075.6" x2="245.7" y2="1099.3"/>
	<rect x="277.8" y="1080.8" class="st13" width="88.7" height="2.8"/>
	<rect x="277.8" y="1091.3" class="st13" width="88.7" height="2.8"/>
	<rect x="277.8" y="1086" class="st13" width="79.2" height="2.8"/>
</g>
</svg>
