<svg version="1.1" id="Layer_1" xmlns="http://www.w3.org/2000/svg" xmlns:xlink="http://www.w3.org/1999/xlink" x="0px" y="0px"
	 width="30px" height="30px" viewBox="0 0 100 100" style="enable-background:new 0 0 100 100;" xml:space="preserve">
<path d="M69.4,57.7l0,0.2c-7.3-3.6-8-4.1-9-2.7c-0.7,1-2.5,3.2-3.1,3.8c-0.6,0.6-1.2,0.7-2.1,0.2c-1-0.5-4.2-1.5-7.9-4.9
	c-2.9-2.6-4.9-5.8-5.5-6.8c-1-1.7,1.1-1.9,2.9-5.4c0.3-0.7,0.2-1.2-0.1-1.7c-0.2-0.5-2.2-5.3-3-7.3c-0.8-1.9-1.6-1.7-2.2-1.7
	c-1.9-0.2-3.3-0.1-4.5,1.1c-5.3,5.9-4,11.9,0.6,18.3c9,11.7,13.7,13.9,22.5,16.9c2.4,0.7,4.5,0.6,6.2,0.4c1.9-0.3,5.8-2.4,6.7-4.7
	c0.8-2.3,0.8-4.3,0.6-4.7C71,58.4,70.4,58.2,69.4,57.7L69.4,57.7z"/>
<path d="M78.1,21.8C52.7-2.8,10.7,15,10.7,49.6c0,6.9,1.8,13.7,5.3,19.6l-5.6,20.3l20.9-5.5c26.1,14.1,58.3-4.6,58.3-34.5
	c0-10.5-4.1-20.4-11.5-27.8L78.1,21.8z M83,49.6c0,25.2-27.7,40.9-49.6,28.1l-1.2-0.7l-12.4,3.2l3.3-12l-0.8-1.2
	c-13.6-21.7,2-50,27.8-50c8.8,0,17,3.4,23.2,9.6C79.6,32.6,83,40.8,83,49.6L83,49.6z"/>
</svg>
